<svg width="48" height="48" viewBox="0 0 48 48"  xmlns="http://www.w3.org/2000/svg">
<path fill-rule="evenodd" clip-rule="evenodd" d="M36.4444 22.2222C37.3415 22.2219 38.2055 22.5607 38.8632 23.1707C39.5209 23.7806 39.9238 24.6166 39.9911 25.5111L40 25.7778V36.4444C40.0003 37.3415 39.6615 38.2055 39.0516 38.8632C38.4416 39.5209 37.6056 39.9238 36.7111 39.9911L36.4444 40H29.3333C28.4363 40.0003 27.5723 39.6615 26.9146 39.0516C26.2568 38.4416 25.8539 37.6056 25.7867 36.7111L25.7778 36.4444V25.7778C25.7775 24.8808 26.1163 24.0168 26.7262 23.359C27.3362 22.7013 28.1722 22.2984 29.0667 22.2311L29.3333 22.2222H36.4444ZM18.6667 29.3333C19.6097 29.3333 20.514 29.7079 21.1808 30.3747C21.8476 31.0415 22.2222 31.9459 22.2222 32.8889V36.4444C22.2222 37.3874 21.8476 38.2918 21.1808 38.9586C20.514 39.6254 19.6097 40 18.6667 40H11.5556C10.6126 40 9.70819 39.6254 9.0414 38.9586C8.3746 38.2918 8 37.3874 8 36.4444V32.8889C8 31.9459 8.3746 31.0415 9.0414 30.3747C9.70819 29.7079 10.6126 29.3333 11.5556 29.3333H18.6667ZM18.6667 8C19.6097 8 20.514 8.3746 21.1808 9.0414C21.8476 9.70819 22.2222 10.6126 22.2222 11.5556V22.2222C22.2222 23.1652 21.8476 24.0696 21.1808 24.7364C20.514 25.4032 19.6097 25.7778 18.6667 25.7778H11.5556C10.6126 25.7778 9.70819 25.4032 9.0414 24.7364C8.3746 24.0696 8 23.1652 8 22.2222V11.5556C8 10.6126 8.3746 9.70819 9.0414 9.0414C9.70819 8.3746 10.6126 8 11.5556 8H18.6667ZM36.4444 8C37.3874 8 38.2918 8.3746 38.9586 9.0414C39.6254 9.70819 40 10.6126 40 11.5556V15.1111C40 16.0541 39.6254 16.9585 38.9586 17.6253C38.2918 18.2921 37.3874 18.6667 36.4444 18.6667H29.3333C28.3903 18.6667 27.486 18.2921 26.8192 17.6253C26.1524 16.9585 25.7778 16.0541 25.7778 15.1111V11.5556C25.7778 10.6126 26.1524 9.70819 26.8192 9.0414C27.486 8.3746 28.3903 8 29.3333 8H36.4444Z"/>
</svg>
