<svg width="48" height="48" viewBox="0 0 48 48"  xmlns="http://www.w3.org/2000/svg">
<path fill-rule="evenodd" clip-rule="evenodd" d="M24 12.0055L38.3988 26.4043V36.5002C38.3988 37.4549 38.0195 38.3705 37.3445 39.0456C36.6694 39.7207 35.7538 40.0999 34.7991 40.0999H13.2009C12.2462 40.0999 11.3306 39.7207 10.6555 39.0456C9.98046 38.3705 9.60121 37.4549 9.60121 36.5002V26.4043L24 12.0055ZM35.999 10.1025V18.5018L31.1994 13.7022V10.1025C31.1994 9.78424 31.3258 9.47904 31.5508 9.25402C31.7759 9.02899 32.0811 8.90257 32.3993 8.90257H34.7991C35.1173 8.90257 35.4225 9.02899 35.6475 9.25402C35.8726 9.47904 35.999 9.78424 35.999 10.1025Z" />
<path fill-rule="evenodd" clip-rule="evenodd" d="M22.3033 7.70263C22.7534 7.25274 23.3637 7 24 7C24.6363 7 25.2466 7.25274 25.6967 7.70263L41.6481 23.6517C41.8734 23.877 42 24.1826 42 24.5012C42 24.8198 41.8734 25.1254 41.6481 25.3507C41.4228 25.576 41.1172 25.7026 40.7986 25.7026C40.4799 25.7026 40.1744 25.576 39.9491 25.3507L24 9.39929L8.05094 25.3507C7.82563 25.576 7.52005 25.7026 7.20141 25.7026C6.88278 25.7026 6.5772 25.576 6.35189 25.3507C6.12658 25.1254 6 24.8198 6 24.5012C6 24.1826 6.12658 23.877 6.35189 23.6517L22.3033 7.70263Z" />
</svg>
