<svg width="48" height="48" viewBox="0 0 48 48" xmlns="http://www.w3.org/2000/svg">
<path d="M32.8662 25.0664C36.1247 25.0664 38.7666 27.7083 38.7666 30.9668C38.7665 34.2252 36.1246 36.8662 32.8662 36.8662C29.608 36.866 26.9669 34.2251 26.9668 30.9668C26.9668 27.7085 29.6079 25.0667 32.8662 25.0664Z"/>
<path d="M25.333 30.5996C25.8851 30.5996 26.3328 31.0475 26.333 31.5996C26.333 32.1519 25.8853 32.5996 25.333 32.5996H11C10.4477 32.5996 10 32.1519 10 31.5996C10.0002 31.0475 10.4478 30.5996 11 30.5996H25.333Z"/>
<path d="M14.9004 12C18.1587 12.0002 20.7998 14.6421 20.7998 17.9004C20.7996 21.1585 18.1585 23.7996 14.9004 23.7998C11.642 23.7998 9.00021 21.1587 9 17.9004C9 14.6419 11.6419 12 14.9004 12Z"/>
<path d="M36.7666 17.5332C37.3188 17.5332 37.7665 17.981 37.7666 18.5332C37.7666 19.0855 37.3189 19.5332 36.7666 19.5332H22.4336C21.8813 19.5332 21.4336 19.0855 21.4336 18.5332C21.4337 17.981 21.8814 17.5332 22.4336 17.5332H36.7666Z"/>
</svg>
