<svg width="48" height="48" viewBox="0 0 48 48"  xmlns="http://www.w3.org/2000/svg">
<path d="M42 12.5789C40.6519 13.1761 39.2221 13.5681 37.7579 13.7419C39.283 12.8278 40.454 11.3804 41.0054 9.65574C39.5556 10.5161 37.9694 11.1222 36.3154 11.448C34.968 10.0126 33.0487 9.1156 30.9242 9.1156C26.8453 9.1156 23.5382 12.4225 23.5382 16.5012C23.5382 17.0802 23.6036 17.6438 23.7294 18.1845C17.5912 17.8764 12.149 14.9361 8.50608 10.4676C7.87045 11.5584 7.50623 12.8273 7.50623 14.1806C7.50623 16.7431 8.81025 19.0036 10.7919 20.3282C9.61905 20.2915 8.47197 19.9747 7.44647 19.4043C7.44605 19.4352 7.44605 19.4662 7.44605 19.4972C7.44605 23.0757 9.99192 26.0609 13.3706 26.7394C12.283 27.0352 11.1421 27.0785 10.0352 26.866C10.975 29.8003 13.7027 31.9355 16.9346 31.9953C14.4068 33.9761 11.2221 35.157 7.76189 35.157C7.16564 35.157 6.57783 35.1219 6 35.0537C9.26855 37.1493 13.1508 38.3721 17.3217 38.3721C30.9071 38.3721 38.3359 27.1177 38.3359 17.3578C38.3359 17.0374 38.3288 16.7189 38.3145 16.4022C39.7605 15.3569 41.0085 14.0622 42 12.5789Z" />
<path d="M42 12.5789C40.6519 13.1761 39.2221 13.5681 37.7579 13.7419C39.283 12.8278 40.454 11.3804 41.0054 9.65574C39.5556 10.5161 37.9694 11.1222 36.3154 11.448C34.968 10.0126 33.0487 9.1156 30.9242 9.1156C26.8453 9.1156 23.5382 12.4225 23.5382 16.5012C23.5382 17.0802 23.6036 17.6438 23.7294 18.1845C17.5912 17.8764 12.149 14.9361 8.50608 10.4676C7.87045 11.5584 7.50623 12.8273 7.50623 14.1806C7.50623 16.7431 8.81025 19.0036 10.7919 20.3282C9.61905 20.2915 8.47197 19.9747 7.44647 19.4043C7.44605 19.4352 7.44605 19.4662 7.44605 19.4972C7.44605 23.0757 9.99192 26.0609 13.3706 26.7394C12.283 27.0352 11.1421 27.0785 10.0352 26.866C10.975 29.8003 13.7027 31.9355 16.9346 31.9953C14.4068 33.9761 11.2221 35.157 7.76189 35.157C7.16564 35.157 6.57783 35.1219 6 35.0537C9.26855 37.1493 13.1508 38.3721 17.3217 38.3721C30.9071 38.3721 38.3359 27.1177 38.3359 17.3578C38.3359 17.0374 38.3288 16.7189 38.3145 16.4022C39.7605 15.3569 41.0085 14.0622 42 12.5789Z" />
</svg>
