<svg width="512" height="512" viewBox="0 0 512 512" fill="none" xmlns="http://www.w3.org/2000/svg">
<g clip-path="url(#clip0_4866_2510)">
<path d="M80.6129 485.384C79.9249 485.414 79.2437 485.239 78.6618 484.882C78.0798 484.525 77.6252 484.003 77.3595 483.387C77.0937 482.771 77.0298 482.09 77.1763 481.438C77.3227 480.785 77.6726 480.192 78.1783 479.738C78.263 479.412 78.3238 479.178 78.4085 478.851C78.3782 478.78 78.3477 478.709 78.3171 478.638C77.6239 477.051 76.4624 475.697 74.9784 474.748C73.4945 473.798 71.7542 473.295 69.9763 473.302C68.1984 473.308 66.4621 473.824 64.9854 474.784C63.5088 475.744 62.3577 477.106 61.6767 478.698C58.9551 485.054 55.49 491.42 54.6368 498.14C54.261 501.11 54.4195 504.122 55.1053 507.039C48.7129 493.519 45.3936 478.825 45.3722 463.952C45.3709 460.22 45.5847 456.49 46.0128 452.781C46.3666 449.741 46.8574 446.722 47.4852 443.724C50.9114 427.461 58.2675 412.218 68.9494 399.246C74.1194 396.511 78.3005 392.305 80.9292 387.195C81.8815 385.358 82.5546 383.397 82.9275 381.374C82.3443 381.448 81.7515 381.494 81.1683 381.531C80.9866 381.54 80.7954 381.55 80.6137 381.559L80.5452 381.562C79.9042 381.59 79.2686 381.438 78.7149 381.123C78.1611 380.809 77.7129 380.346 77.424 379.791C77.1352 379.235 77.0181 378.611 77.0869 377.992C77.1557 377.374 77.4074 376.788 77.8118 376.305C78.0636 376.004 78.3155 375.704 78.5677 375.404C78.9501 374.94 79.3421 374.486 79.7246 374.022C79.7687 373.978 79.8102 373.932 79.8489 373.883C80.2887 373.355 80.7284 372.836 81.1683 372.307C80.3655 371.099 79.2857 370.087 78.0132 369.35C73.6056 366.847 67.5248 368.581 64.341 372.446C61.1477 376.312 60.5454 381.735 61.6544 386.565C62.745 390.675 64.5491 394.574 66.9894 398.097C66.7504 398.394 66.5018 398.681 66.2628 398.978C61.8934 404.425 58.0852 410.275 54.8927 416.443C55.6691 409.533 54.7425 402.543 52.1891 396.048C49.6013 389.995 44.7508 384.898 40.4794 379.665C35.3488 373.379 24.8279 376.123 23.924 384.09C23.9152 384.167 23.9067 384.244 23.8984 384.321C24.5328 384.669 25.1539 385.037 25.7615 385.426C26.5249 385.921 27.1164 386.628 27.4585 387.454C27.8006 388.28 27.8774 389.187 27.6788 390.056C27.4802 390.925 27.0155 391.715 26.3456 392.324C25.6757 392.933 24.8317 393.331 23.9244 393.466L23.8315 393.48C24.0575 395.697 24.457 397.895 25.0266 400.053C26.677 406.078 29.5933 411.708 33.5929 416.589C37.5925 421.471 42.589 425.498 48.2692 428.419C48.642 428.605 49.0054 428.79 49.3783 428.966C46.1708 437.78 44.1589 446.96 43.3931 456.276C42.9596 461.772 42.9852 467.294 43.4696 472.786L43.4409 472.592C42.217 466.484 38.8569 460.973 33.9278 456.99C26.6069 451.159 16.2639 449.012 8.36595 444.325C7.52659 443.802 6.55063 443.523 5.55317 443.521C4.5557 443.519 3.57833 443.793 2.73635 444.312C1.89437 444.83 1.2229 445.571 0.801124 446.448C0.379342 447.324 0.224855 448.299 0.355875 449.258C0.366467 449.326 0.377223 449.394 0.388163 449.463C1.56551 449.928 2.71183 450.463 3.82049 451.066C4.45494 451.413 5.07598 451.782 5.68362 452.171C6.44699 452.666 7.03851 453.372 7.38064 454.198C7.72277 455.024 7.79956 455.931 7.60098 456.8C7.4024 457.669 6.9377 458.46 6.26776 459.069C5.59781 459.677 4.75389 460.076 3.84654 460.211L3.75356 460.225C3.68662 460.234 3.62927 460.244 3.56244 460.253C5.57409 464.91 8.39751 469.197 11.909 472.925C16.247 477.438 21.4899 481.045 27.3164 483.524C33.143 486.002 39.4303 487.301 45.7929 487.34H45.8025C47.5297 494.617 50.0321 501.701 53.2696 508.476H79.9445C80.0402 508.189 80.1262 507.892 80.2122 507.605C77.7432 507.755 75.2644 507.612 72.8312 507.178C74.8103 504.824 76.7893 502.451 78.7685 500.096C78.8126 500.052 78.8541 500.006 78.8928 499.957C79.8967 498.752 80.9101 497.556 81.914 496.351L81.9146 496.349C81.9681 492.655 81.5309 488.97 80.6137 485.384L80.6129 485.384Z" fill="#F2F2F2"/>
<path d="M473.879 485.384C473.191 485.414 472.51 485.239 471.928 484.882C471.346 484.525 470.892 484.003 470.626 483.387C470.36 482.771 470.296 482.09 470.443 481.438C470.589 480.785 470.939 480.192 471.445 479.738C471.53 479.412 471.59 479.178 471.675 478.851C471.645 478.78 471.614 478.709 471.584 478.638C470.89 477.051 469.729 475.697 468.245 474.748C466.761 473.798 465.021 473.295 463.243 473.302C461.465 473.308 459.729 473.824 458.252 474.784C456.775 475.744 455.624 477.106 454.943 478.698C452.222 485.054 448.757 491.42 447.903 498.14C447.528 501.11 447.686 504.122 448.372 507.039C441.98 493.519 438.66 478.825 438.639 463.952C438.637 460.22 438.851 456.49 439.279 452.781C439.633 449.741 440.124 446.722 440.752 443.724C444.178 427.461 451.534 412.218 462.216 399.246C467.386 396.511 471.567 392.305 474.196 387.195C475.148 385.358 475.821 383.397 476.194 381.374C475.611 381.448 475.018 381.494 474.435 381.531C474.253 381.54 474.062 381.55 473.88 381.559L473.812 381.562C473.171 381.59 472.535 381.438 471.981 381.123C471.428 380.809 470.979 380.346 470.691 379.791C470.402 379.235 470.285 378.611 470.353 377.992C470.422 377.374 470.674 376.788 471.078 376.305C471.33 376.004 471.582 375.704 471.834 375.404C472.217 374.94 472.609 374.486 472.991 374.022C473.035 373.978 473.077 373.932 473.115 373.883C473.555 373.355 473.995 372.836 474.435 372.307C473.632 371.099 472.552 370.087 471.28 369.35C466.872 366.847 460.791 368.581 457.608 372.446C454.414 376.312 453.812 381.735 454.921 386.565C456.012 390.675 457.816 394.574 460.256 398.097C460.017 398.394 459.768 398.681 459.529 398.978C455.16 404.425 451.352 410.275 448.159 416.443C448.936 409.533 448.009 402.543 445.456 396.048C442.868 389.995 438.017 384.898 433.746 379.665C428.615 373.379 418.094 376.123 417.191 384.09C417.182 384.167 417.173 384.244 417.165 384.321C417.799 384.669 418.42 385.037 419.028 385.426C419.791 385.921 420.383 386.628 420.725 387.454C421.067 388.28 421.144 389.187 420.945 390.056C420.747 390.925 420.282 391.715 419.612 392.324C418.942 392.933 418.098 393.331 417.191 393.466L417.098 393.48C417.324 395.697 417.724 397.895 418.293 400.053C419.943 406.078 422.86 411.708 426.859 416.589C430.859 421.471 435.856 425.498 441.536 428.419C441.909 428.605 442.272 428.79 442.645 428.966C439.437 437.78 437.425 446.96 436.66 456.276C436.226 461.772 436.252 467.294 436.736 472.786L436.708 472.592C435.484 466.484 432.123 460.973 427.194 456.99C419.873 451.159 409.53 449.012 401.633 444.325C400.793 443.802 399.817 443.523 398.82 443.521C397.822 443.519 396.845 443.793 396.003 444.312C395.161 444.83 394.489 445.571 394.068 446.448C393.646 447.324 393.491 448.299 393.622 449.258C393.633 449.326 393.644 449.394 393.655 449.463C394.832 449.928 395.978 450.463 397.087 451.066C397.721 451.413 398.343 451.782 398.95 452.171C399.714 452.666 400.305 453.372 400.647 454.198C400.989 455.024 401.066 455.931 400.868 456.8C400.669 457.669 400.204 458.46 399.534 459.069C398.864 459.677 398.02 460.076 397.113 460.211L397.02 460.225C396.953 460.234 396.896 460.244 396.829 460.253C398.841 464.91 401.664 469.197 405.176 472.925C409.514 477.438 414.756 481.045 420.583 483.524C426.41 486.002 432.697 487.301 439.059 487.34H439.069C440.796 494.617 443.299 501.701 446.536 508.476H473.211C473.307 508.189 473.393 507.892 473.479 507.605C471.01 507.755 468.531 507.612 466.098 507.178C468.077 504.824 470.056 502.451 472.035 500.096C472.079 500.052 472.121 500.006 472.159 499.957C473.163 498.752 474.177 497.556 475.181 496.351L475.181 496.349C475.235 492.655 474.797 488.97 473.88 485.384L473.879 485.384Z" fill="#F2F2F2"/>
<path d="M255.874 508.307C255.797 508.307 255.72 508.305 255.644 508.304C253.692 508.195 251.858 507.361 250.524 505.975C249.19 504.589 248.459 502.758 248.483 500.862C248.483 489.329 239.986 482.6 231.565 481.049C223.144 479.499 212.694 482.736 208.332 493.468L204.367 503.119C200.938 506.436 196.293 508.298 191.45 508.298C186.607 508.298 181.962 506.436 178.533 503.119L178.299 502.892L178.444 502.603L248.483 363.662V360.257C248.386 359.207 248.387 358.151 248.485 357.102L248.483 7.16333C248.483 6.20412 248.682 5.25467 249.067 4.37131C249.453 3.48795 250.017 2.68867 250.728 2.02089C251.438 1.35311 252.279 0.83044 253.202 0.483877C254.124 0.137313 255.109 -0.026091 256.098 0.00338214C258.05 0.111559 259.884 0.945459 261.217 2.33151C262.551 3.71756 263.283 5.54899 263.259 7.44459V357.142C263.356 358.192 263.355 359.248 263.257 360.297L263.259 363.661L333.443 502.892L333.209 503.119C329.78 506.436 325.135 508.298 320.292 508.298C315.449 508.298 310.804 506.436 307.375 503.119L307.271 502.966L303.41 493.468C299.048 482.737 288.599 479.502 280.177 481.049C271.756 482.6 263.259 489.329 263.259 500.862V501.144C263.259 503.043 262.481 504.865 261.096 506.208C259.711 507.551 257.833 508.306 255.874 508.307Z" fill="#E6E6E6" fill-opacity="0.9"/>
<path d="M384.079 253.289H127.663C124.682 253.286 121.824 252.137 119.717 250.093C117.609 248.05 116.423 245.279 116.42 242.389V68.5679C116.423 65.6779 117.609 62.9071 119.717 60.8635C121.824 58.8199 124.682 57.6704 127.663 57.6672H384.079C387.06 57.6706 389.917 58.8201 392.025 60.8637C394.133 62.9072 395.318 65.6779 395.322 68.5679V242.389C395.318 245.279 394.132 248.05 392.025 250.093C389.917 252.137 387.06 253.286 384.079 253.289Z" fill="white"/>
<path d="M394.396 254.641H118.593C114.989 254.638 111.534 253.346 108.986 251.049C106.438 248.752 105.004 245.638 105 242.389V68.5677C105.004 65.3192 106.438 62.2048 108.986 59.9078C111.534 57.6109 114.989 56.3188 118.593 56.3152H394.396C398 56.3189 401.454 57.611 404.003 59.908C406.551 62.205 407.984 65.3193 407.988 68.5677V242.389C407.984 245.638 406.551 248.752 404.003 251.049C401.454 253.346 398 254.638 394.396 254.641ZM118.593 59.0195C115.784 59.0223 113.092 60.0291 111.106 61.8191C109.12 63.6091 108.003 66.0361 108 68.5677V242.389C108.003 244.921 109.121 247.348 111.106 249.138C113.092 250.927 115.785 251.934 118.593 251.937H394.396C397.204 251.934 399.897 250.927 401.882 249.138C403.868 247.348 404.985 244.921 404.988 242.389V68.5677C404.985 66.0362 403.868 63.6092 401.882 61.8192C399.897 60.0291 397.204 59.0223 394.396 59.0195H118.593Z" fill="#FFD400"/>
<path d="M293.783 68.5351H217.959C213.152 68.5298 208.543 66.6759 205.144 63.3801C201.744 60.0842 199.832 55.6156 199.827 50.9546V50.635H311.915V50.9546C311.91 55.6156 309.997 60.0842 306.598 63.3801C303.199 66.6759 298.59 68.5298 293.783 68.5351Z" fill="#FFD400" fill-opacity="0.9"/>
<path d="M294.113 264.157H218.288C213.481 264.152 208.872 262.298 205.473 259.002C202.074 255.707 200.162 251.238 200.156 246.577V246.257H312.245V246.577C312.239 251.238 310.327 255.707 306.928 259.002C303.529 262.298 298.92 264.152 294.113 264.157Z" fill="#FFD400" fill-opacity="0.9"/>
<path d="M511.033 509.202C511.033 509.343 511.005 509.483 510.949 509.613C510.894 509.744 510.812 509.862 510.71 509.962C510.607 510.062 510.485 510.14 510.35 510.194C510.216 510.248 510.072 510.275 509.926 510.275H1.10626C0.812841 510.275 0.53146 510.162 0.323979 509.961C0.116497 509.76 -9.15527e-05 509.487 -9.15527e-05 509.202C-9.15527e-05 508.918 0.116497 508.645 0.323979 508.444C0.53146 508.243 0.812841 508.13 1.10626 508.13H509.926C510.072 508.129 510.216 508.157 510.35 508.21C510.485 508.264 510.607 508.343 510.71 508.443C510.812 508.543 510.894 508.661 510.949 508.791C511.005 508.922 511.033 509.061 511.033 509.202Z" fill="#CCCCCC"/>
</g>
<defs>
<clipPath id="clip0_4866_2510">
<rect width="512" height="512" fill="white"/>
</clipPath>
</defs>
</svg>
