<svg width="512" height="508" viewBox="0 0 512 508" fill="none" xmlns="http://www.w3.org/2000/svg">
<path d="M475.814 104.857H36.8137V400.857H475.814V104.857Z" fill="white"/>
<path d="M476.814 402.857H34.8137V103.857H476.814V402.857ZM37.8412 399.83H473.786V106.883H37.8412V399.83Z" fill="#3F3D56"/>
<path d="M73.8137 375.857H438.814V128.857H73.8137V375.857Z" fill="#E5E5E5"/>
<path d="M177.541 296.382C198.685 296.382 215.827 279.234 215.827 258.08C215.827 236.926 198.685 219.777 177.541 219.777C156.396 219.777 139.255 236.926 139.255 258.08C139.255 279.234 156.396 296.382 177.541 296.382Z" fill="#3F3D56"/>
<path d="M297.598 376.117H109.783C109.546 376.12 109.31 376.101 109.076 376.061L197.906 222.131C198.448 221.173 199.235 220.375 200.186 219.82C201.137 219.265 202.218 218.973 203.319 218.973C204.42 218.973 205.501 219.265 206.452 219.82C207.403 220.375 208.19 221.173 208.732 222.131L268.351 325.421L271.207 330.364L297.598 376.117Z" fill="#FFD400"/>
<path opacity="0.2" d="M297.599 376.113H233.473L264.952 330.366L267.22 327.07L268.353 325.422L271.208 330.366L297.599 376.113Z" fill="black"/>
<path d="M402.173 376.112H239.728L271.207 330.365L273.472 327.07L314.491 267.457C315.217 266.546 316.125 265.798 317.158 265.262C318.191 264.725 319.326 264.412 320.488 264.342C321.65 264.273 322.813 264.449 323.903 264.858C324.992 265.268 325.984 265.902 326.812 266.72C327.025 266.953 327.222 267.199 327.403 267.457L402.173 376.112Z" fill="#FFD400"/>
</svg>
